<svg xmlns="http://www.w3.org/2000/svg" width="600" height="400" viewBox="0 0 600 400"><rect width="100%" height="100%" fill="#DDDDDD"/><path fill="#999999" d="M121.68 200.4h6.21l-2.37-6.49q-.18-.44-.37-1.03-.19-.59-.37-1.28-.18.69-.37 1.29-.19.6-.36 1.04l-2.37 6.47Zm4.96-12.15 7.67 19.52h-2.81q-.47 0-.77-.24-.3-.23-.45-.58l-1.45-3.99h-8.09l-1.46 3.99q-.11.31-.42.56-.31.26-.77.26h-2.83l7.68-19.52h3.7Zm13.78 19.74q-1.81 0-2.77-1.02-.97-1.02-.97-2.82v-7.73h-1.42q-.27 0-.45-.18-.19-.17-.19-.53v-1.32l2.22-.36.71-3.78q.06-.27.25-.42.19-.15.49-.15h1.73v4.36h3.7v2.38h-3.7v7.5q0 .65.31 1.02.32.36.87.36.32 0 .52-.07.21-.08.37-.16.15-.08.28-.16.12-.07.24-.07.15 0 .24.07.1.08.2.23l1 1.62q-.73.61-1.67.92-.95.31-1.96.31Zm10.05 0q-1.81 0-2.78-1.02-.96-1.02-.96-2.82v-7.73h-1.42q-.27 0-.46-.18-.19-.17-.19-.53v-1.32l2.23-.36.7-3.78q.07-.27.26-.42.19-.15.48-.15h1.73v4.36h3.7v2.38h-3.7v7.5q0 .65.32 1.02.32.36.87.36.31 0 .52-.07.21-.08.36-.16.16-.08.28-.16.12-.07.24-.07.15 0 .25.07.09.08.2.23l1 1.62q-.73.61-1.68.92-.94.31-1.95.31Zm8.06-8.74h6.29q0-.65-.19-1.22-.18-.57-.54-1.01-.37-.43-.93-.68-.56-.25-1.3-.25-1.44 0-2.27.83-.84.82-1.06 2.33Zm8.5 2.01h-8.57q.08 1.07.38 1.85.29.77.78 1.28.48.5 1.15.75.67.25 1.48.25.81 0 1.4-.18.59-.19 1.02-.42.44-.23.77-.42.33-.19.65-.19.41 0 .62.31l.95 1.21q-.55.65-1.24 1.09-.69.44-1.43.7-.75.27-1.53.37-.78.11-1.51.11-1.44 0-2.68-.48-1.24-.48-2.16-1.41-.92-.94-1.45-2.33-.52-1.38-.52-3.2 0-1.42.46-2.67.45-1.25 1.31-2.17.86-.93 2.09-1.47 1.24-.54 2.79-.54 1.31 0 2.42.42 1.11.42 1.9 1.22.8.81 1.25 1.97.45 1.17.45 2.67 0 .76-.16 1.02t-.62.26Zm6.17-6.73.23 1.09q.42-.42.88-.78.47-.35.99-.6t1.11-.4q.6-.14 1.3-.14 1.13 0 2.01.39.88.38 1.47 1.08.58.69.89 1.66.3.96.3 2.12v8.82h-3.33v-8.82q0-1.26-.59-1.96-.58-.69-1.76-.69-.87 0-1.62.39-.76.39-1.43 1.06v10.02h-3.34v-13.85h2.04q.65 0 .85.61Zm16.96 13.46q-1.81 0-2.78-1.02-.96-1.02-.96-2.82v-7.73H185q-.27 0-.46-.18-.19-.17-.19-.53v-1.32l2.23-.36.7-3.78q.07-.27.26-.42.19-.15.48-.15h1.73v4.36h3.7v2.38h-3.7v7.5q0 .65.32 1.02.32.36.87.36.31 0 .52-.07.21-.08.36-.16.16-.08.28-.16.12-.07.24-.07.15 0 .25.07.09.08.2.23l1 1.62q-.73.61-1.68.92-.94.31-1.95.31Zm5.53-14.07h3.35v13.85h-3.35v-13.85Zm3.81-4.04q0 .43-.18.81-.17.38-.46.66-.29.29-.69.46-.39.17-.83.17-.43 0-.82-.17-.38-.17-.67-.46-.28-.28-.45-.66-.17-.38-.17-.81 0-.44.17-.83.17-.4.45-.68.29-.28.67-.45.39-.17.82-.17.44 0 .83.17.4.17.69.45.29.28.46.68.18.39.18.83Zm9.07 3.82q1.54 0 2.8.5 1.26.5 2.16 1.42.9.92 1.38 2.24.49 1.32.49 2.96t-.49 2.97q-.48 1.32-1.38 2.25-.9.93-2.16 1.43-1.26.5-2.8.5-1.55 0-2.82-.5-1.27-.5-2.17-1.43-.9-.93-1.39-2.25-.49-1.33-.49-2.97 0-1.64.49-2.96t1.39-2.24q.9-.92 2.17-1.42 1.27-.5 2.82-.5Zm0 11.71q1.73 0 2.56-1.16.83-1.16.83-3.41 0-2.24-.83-3.41-.83-1.18-2.56-1.18-1.76 0-2.6 1.19-.84 1.18-.84 3.4 0 2.23.84 3.4t2.6 1.17Zm12.27-10.88.23 1.09q.42-.42.89-.78.46-.35.98-.6t1.11-.4q.6-.14 1.3-.14 1.13 0 2.01.39.88.38 1.47 1.08.58.69.89 1.66.3.96.3 2.12v8.82h-3.33v-8.82q0-1.26-.58-1.96-.58-.69-1.77-.69-.87 0-1.62.39-.76.39-1.43 1.06v10.02h-3.34v-13.85h2.04q.65 0 .85.61Zm37.86-6.28h2.74v19.52h-3.2v-12.61q0-.76.08-1.63l-5.9 11.08q-.42.8-1.28.8h-.52q-.86 0-1.28-.8l-5.97-11.12q.04.44.07.87.03.44.03.8v12.61h-3.2v-19.52h2.74q.24 0 .42.01.17.02.31.07.15.05.26.18.12.12.22.32l5.85 10.84q.23.43.42.89.2.46.39.95.19-.5.39-.97t.43-.9l5.77-10.81q.1-.2.23-.32.12-.13.26-.18.14-.05.32-.07.17-.01.42-.01Zm9.19 11h6.29q0-.65-.18-1.22t-.55-1.01q-.36-.43-.92-.68-.56-.25-1.31-.25-1.44 0-2.27.83-.83.82-1.06 2.33Zm8.5 2.01h-8.57q.08 1.07.38 1.85.3.77.78 1.28.49.5 1.16.75.66.25 1.47.25.81 0 1.4-.18.59-.19 1.03-.42.44-.23.77-.42.33-.19.64-.19.42 0 .62.31l.96 1.21q-.56.65-1.24 1.09-.69.44-1.44.7-.75.27-1.53.37-.77.11-1.5.11-1.45 0-2.69-.48t-2.16-1.41q-.92-.94-1.44-2.33-.53-1.38-.53-3.2 0-1.42.46-2.67t1.32-2.17q.85-.93 2.09-1.47 1.23-.54 2.79-.54 1.31 0 2.41.42 1.11.42 1.91 1.22.79.81 1.24 1.97.46 1.17.46 2.67 0 .76-.17 1.02-.16.26-.62.26Zm14.08-5.63-.87 1.22q-.15.19-.29.3-.15.1-.42.1-.25 0-.49-.15-.25-.16-.59-.35-.33-.2-.8-.35-.46-.16-1.15-.16-.88 0-1.54.32t-1.1.91q-.44.59-.66 1.44-.21.84-.21 1.91 0 1.1.23 1.97.24.86.69 1.45.44.59 1.08.89.63.3 1.43.3.79 0 1.29-.19.49-.2.83-.43.33-.24.58-.44.25-.19.56-.19.41 0 .61.31l.96 1.21q-.55.65-1.2 1.09-.65.44-1.35.7-.69.27-1.43.37-.73.11-1.46.11-1.28 0-2.42-.48-1.13-.48-1.98-1.39-.85-.92-1.35-2.25-.49-1.33-.49-3.03 0-1.53.44-2.83t1.29-2.26q.85-.95 2.11-1.49 1.25-.54 2.88-.54 1.56 0 2.73.5 1.16.5 2.09 1.43Zm5.55-7.92v7.69q.81-.75 1.78-1.22.98-.48 2.29-.48 1.13 0 2.01.39.88.38 1.46 1.08.59.69.89 1.66.31.96.31 2.12v8.82h-3.34v-8.82q0-1.26-.58-1.96-.58-.69-1.77-.69-.86 0-1.62.39-.75.39-1.43 1.06v10.02h-3.33v-20.06h3.33Zm19.21 16.48v-2.33q-1.44.06-2.43.25-.98.18-1.58.46-.59.29-.85.66-.25.38-.25.83 0 .88.52 1.25.52.38 1.35.38 1.03 0 1.78-.37t1.46-1.13Zm-7.04-7.27-.6-1.07q2.39-2.19 5.75-2.19 1.22 0 2.18.4.96.4 1.62 1.11.66.71 1 1.69.35.99.35 2.16v8.75h-1.52q-.47 0-.72-.14-.26-.14-.41-.58l-.3-.99q-.52.47-1.02.83-.5.35-1.04.6-.54.24-1.16.37-.61.13-1.35.13-.88 0-1.62-.24-.75-.24-1.29-.71t-.83-1.17q-.3-.71-.3-1.64 0-.52.18-1.04.17-.52.57-1 .4-.47 1.03-.89.64-.41 1.56-.73.93-.31 2.16-.5 1.22-.2 2.8-.24v-.81q0-1.39-.59-2.06-.59-.66-1.72-.66-.81 0-1.34.18-.53.19-.94.43-.4.24-.73.42-.33.19-.74.19-.35 0-.59-.18-.25-.18-.39-.42Zm16.32-2.39.23 1.09q.42-.42.88-.78.47-.35.99-.6t1.11-.4q.59-.14 1.3-.14 1.13 0 2.01.39.88.38 1.46 1.08.59.69.89 1.66.31.96.31 2.12v8.82h-3.34v-8.82q0-1.26-.58-1.96-.58-.69-1.77-.69-.86 0-1.62.39-.75.39-1.43 1.06v10.02h-3.33v-13.85h2.04q.65 0 .85.61Zm12.44-.61h3.35v13.85h-3.35v-13.85Zm3.81-4.04q0 .43-.17.81-.18.38-.47.66-.29.29-.68.46-.39.17-.84.17-.43 0-.81-.17-.39-.17-.67-.46-.29-.28-.46-.66-.16-.38-.16-.81 0-.44.16-.83.17-.4.46-.68.28-.28.67-.45.38-.17.81-.17.45 0 .84.17.39.17.68.45.29.28.47.68.17.39.17.83Zm12.15 5.54-.75 1.2q-.14.21-.29.3-.15.09-.38.09-.24 0-.52-.13-.27-.14-.64-.31-.36-.17-.83-.3-.46-.14-1.1-.14-.98 0-1.54.42t-.56 1.09q0 .45.29.75.29.31.77.54.48.23 1.08.41.61.18 1.24.4.63.21 1.23.49.61.28 1.09.7.48.43.77 1.02.29.6.29 1.43 0 1-.36 1.85-.36.84-1.06 1.45-.7.62-1.73.96-1.03.35-2.38.35-.72 0-1.4-.13-.68-.13-1.31-.36-.63-.23-1.16-.54-.54-.31-.94-.67l.77-1.27q.15-.23.35-.35.2-.13.51-.13t.59.18q.28.17.64.38.37.2.86.38.49.17 1.25.17.59 0 1.02-.14.42-.14.7-.37.28-.23.4-.54.13-.3.13-.62 0-.49-.29-.8-.29-.31-.77-.54-.48-.23-1.09-.41-.62-.18-1.26-.4-.64-.22-1.25-.51-.62-.29-1.1-.73-.48-.45-.77-1.1-.29-.64-.29-1.56 0-.85.34-1.62.34-.77.99-1.34.66-.58 1.64-.92.98-.35 2.26-.35 1.43 0 2.6.48 1.18.47 1.96 1.24Zm6 12.35h-3.34v-13.85h2.04q.65 0 .85.61l.22 1.02q.36-.4.76-.74.4-.34.85-.58.45-.24.97-.39.52-.14 1.14-.14 1.31 0 2.16.71.84.71 1.26 1.89.32-.69.81-1.19.48-.49 1.06-.8.58-.31 1.24-.46.65-.15 1.32-.15 1.14 0 2.03.35.9.35 1.5 1.03.61.67.93 1.65.31.97.31 2.22v8.82h-3.33v-8.82q0-1.32-.58-1.99-.58-.66-1.7-.66-.51 0-.95.17-.44.18-.77.51t-.52.83q-.19.5-.19 1.14v8.82h-3.35v-8.82q0-1.39-.56-2.02-.56-.63-1.64-.63-.73 0-1.36.35-.62.36-1.16.98v10.14Zm38.67-16.63h-8.66v5.41h6.83v2.8h-6.83v5.52h8.66v2.9h-12.31v-19.52h12.31v2.89Zm10.32 9.34 4.74 7.29h-3.22q-.36 0-.58-.19-.23-.19-.38-.43l-2.93-4.82q-.06.23-.15.43-.09.2-.2.38l-2.59 4.01q-.15.23-.36.42-.22.2-.54.2h-2.99l4.76-7.14-4.57-6.71h3.22q.36 0 .54.1.17.1.31.33l2.9 4.62q.15-.46.42-.91l2.33-3.64q.3-.5.77-.5h3.07l-4.55 6.56Zm9.8-2.51v6.21q.57.69 1.23.97.67.28 1.45.28.76 0 1.37-.28.61-.28 1.03-.86.43-.58.66-1.47.23-.88.23-2.08 0-1.22-.2-2.06-.2-.85-.56-1.37-.37-.53-.88-.77-.52-.24-1.19-.24-1.04 0-1.76.43-.73.44-1.38 1.24Zm-.45-3.44.27 1.28q.85-.96 1.93-1.55 1.08-.6 2.54-.6 1.14 0 2.07.48.94.47 1.62 1.37.69.89 1.06 2.21.37 1.32.37 3.02 0 1.55-.42 2.87-.42 1.33-1.2 2.3-.77.97-1.87 1.52-1.1.54-2.47.54-1.16 0-1.98-.36-.82-.35-1.47-.99v5.67h-3.34v-18.37h2.04q.65 0 .85.61Zm12.49-6.82h3.33v20.06h-3.33v-20.06Zm12.8 5.99q1.54 0 2.8.5 1.26.5 2.16 1.42.9.92 1.38 2.24.49 1.32.49 2.96t-.49 2.97q-.48 1.32-1.38 2.25-.9.93-2.16 1.43-1.26.5-2.8.5-1.55 0-2.82-.5-1.27-.5-2.17-1.43-.9-.93-1.39-2.25-.49-1.33-.49-2.97 0-1.64.49-2.96t1.39-2.24q.9-.92 2.17-1.42 1.27-.5 2.82-.5Zm0 11.71q1.73 0 2.56-1.16.83-1.16.83-3.41 0-2.24-.83-3.41-.83-1.18-2.56-1.18-1.76 0-2.6 1.19-.84 1.18-.84 3.4 0 2.23.84 3.4t2.6 1.17Zm12.32-10.65.21 1.56q.64-1.24 1.54-1.95.89-.71 2.1-.71.96 0 1.54.42l-.22 2.5q-.06.24-.19.34-.13.1-.35.1-.2 0-.6-.06-.39-.07-.77-.07-.56 0-.99.16-.43.16-.77.47-.35.3-.61.73-.27.43-.49.99v8.53h-3.34v-13.85h1.96q.51 0 .71.18.21.18.27.66Zm9.76 4.49h6.3q0-.65-.19-1.22-.18-.57-.54-1.01-.37-.43-.93-.68-.56-.25-1.3-.25-1.45 0-2.28.83-.83.82-1.06 2.33Zm8.51 2.01h-8.57q.08 1.07.37 1.85.3.77.79 1.28.48.5 1.15.75.67.25 1.48.25.81 0 1.4-.18.58-.19 1.02-.42.44-.23.77-.42.33-.19.64-.19.42 0 .63.31l.95 1.21q-.55.65-1.24 1.09-.69.44-1.44.7-.75.27-1.52.37-.78.11-1.51.11-1.44 0-2.68-.48-1.25-.48-2.16-1.41-.92-.94-1.45-2.33-.52-1.38-.52-3.2 0-1.42.45-2.67.46-1.25 1.32-2.17.86-.93 2.09-1.47 1.24-.54 2.79-.54 1.31 0 2.42.42 1.1.42 1.9 1.22.8.81 1.25 1.97.45 1.17.45 2.67 0 .76-.16 1.02t-.62.26Zm6.22-6.5.21 1.56q.64-1.24 1.53-1.95.9-.71 2.11-.71.96 0 1.54.42l-.22 2.5q-.06.24-.19.34-.13.1-.35.1-.2 0-.6-.06-.4-.07-.77-.07-.56 0-.99.16-.43.16-.78.47-.34.3-.6.73-.27.43-.5.99v8.53h-3.33v-13.85h1.96q.51 0 .71.18.21.18.27.66Z"/></svg>