<svg xmlns="http://www.w3.org/2000/svg" width="600" height="400" viewBox="0 0 600 400"><rect width="100%" height="100%" fill="#DDDDDD"/><path fill="#999999" d="M141.87 197.64q0 2.55-.84 4.67-.85 2.13-2.39 3.67-1.53 1.53-3.69 2.38-2.16.85-4.8.85h-8.82v-23.14h8.82q2.64 0 4.8.86 2.16.86 3.69 2.38 1.54 1.53 2.39 3.66.84 2.13.84 4.67Zm-4.41 0q0-1.9-.51-3.41-.5-1.52-1.45-2.56-.95-1.05-2.31-1.61-1.35-.56-3.04-.56h-4.5v16.29h4.5q1.69 0 3.04-.56 1.36-.56 2.31-1.61t1.45-2.56q.51-1.51.51-3.42Zm7.71-4.85h3.97v16.42h-3.97v-16.42Zm4.51-4.78q0 .51-.21.96-.2.45-.55.78-.34.34-.81.54-.46.2-.99.2-.51 0-.97-.2-.45-.2-.79-.54-.33-.33-.53-.78t-.2-.96q0-.53.2-.99.2-.47.53-.8.34-.34.79-.54.46-.2.97-.2.53 0 .99.2.47.2.81.54.35.33.55.8.21.46.21.99Zm8.59 21.2h-3.95v-13.44l-1.42-.22q-.47-.1-.75-.33t-.28-.67v-1.61h2.45v-1.22q0-1.41.43-2.53.42-1.12 1.21-1.9.79-.78 1.93-1.2 1.14-.42 2.56-.42 1.14 0 2.11.31l-.08 1.98q-.01.23-.13.36-.11.14-.29.21-.19.07-.43.1-.24.02-.51.02-.7 0-1.25.15-.56.15-.94.53-.38.38-.58.99-.2.62-.2 1.53v1.09h4.27v2.81h-4.15v13.46Zm11.48 0h-3.96v-13.44l-1.42-.22q-.46-.1-.74-.33-.28-.23-.28-.67v-1.61h2.44v-1.22q0-1.41.43-2.53.42-1.12 1.21-1.9.8-.78 1.93-1.2 1.14-.42 2.56-.42 1.14 0 2.11.31l-.08 1.98q-.01.23-.12.36-.12.14-.3.21-.18.07-.42.1-.24.02-.52.02-.7 0-1.25.15t-.94.53q-.38.38-.58.99-.2.62-.2 1.53v1.09h4.27v2.81h-4.14v13.46Zm16.56-16.42h3.95v16.42h-2.42q-.78 0-.99-.72l-.27-1.31q-1.01 1.02-2.23 1.65-1.21.64-2.86.64-1.34 0-2.38-.46-1.03-.46-1.73-1.29-.71-.83-1.07-1.97-.36-1.15-.36-2.52v-10.44h3.96v10.44q0 1.5.69 2.32.7.83 2.09.83 1.02 0 1.92-.46.9-.45 1.7-1.25v-11.88Zm18.76 1.78-.89 1.42q-.16.26-.34.36-.17.11-.45.11t-.61-.16q-.33-.16-.76-.36-.43-.2-.99-.36-.55-.16-1.3-.16-1.17 0-1.83.49-.67.5-.67 1.3 0 .53.35.89.34.36.91.63.57.27 1.29.49.72.21 1.46.47.75.26 1.47.58.72.33 1.28.84.57.5.92 1.2.34.71.34 1.7 0 1.18-.42 2.18-.43 1-1.26 1.73-.83.73-2.06 1.14-1.22.41-2.82.41-.85 0-1.66-.16-.8-.15-1.55-.42-.74-.27-1.37-.64-.64-.37-1.12-.8l.92-1.5q.17-.28.41-.42.24-.14.61-.14t.7.2q.32.21.76.45.43.24 1.01.45.59.21 1.48.21.71 0 1.21-.17t.83-.44q.33-.27.48-.63.15-.36.15-.75 0-.57-.34-.94t-.91-.64q-.57-.27-1.3-.49-.73-.21-1.49-.47t-1.48-.6q-.73-.34-1.3-.87-.57-.53-.91-1.3-.35-.77-.35-1.85 0-1.01.4-1.92.4-.92 1.18-1.6.78-.68 1.94-1.08 1.16-.41 2.68-.41 1.69 0 3.08.56 1.4.56 2.32 1.47Zm3.28-1.78h3.97v16.42h-3.97v-16.42Zm4.52-4.78q0 .51-.21.96-.21.45-.55.78-.35.34-.81.54-.47.2-.99.2t-.97-.2q-.46-.2-.79-.54-.34-.33-.54-.78t-.2-.96q0-.53.2-.99.2-.47.54-.8.33-.34.79-.54.45-.2.97-.2t.99.2q.46.2.81.54.34.33.55.8.21.46.21.99Zm10.75 4.53q1.82 0 3.32.59 1.49.59 2.56 1.68 1.06 1.09 1.64 2.66.57 1.56.57 3.5 0 1.95-.57 3.52-.58 1.57-1.64 2.67-1.07 1.11-2.56 1.7-1.5.59-3.32.59-1.84 0-3.35-.59-1.5-.59-2.56-1.7-1.07-1.1-1.65-2.67-.59-1.57-.59-3.52 0-1.94.59-3.5.58-1.57 1.65-2.66 1.06-1.09 2.56-1.68 1.51-.59 3.35-.59Zm0 13.87q2.05 0 3.03-1.38.98-1.37.98-4.03 0-2.65-.98-4.05-.98-1.39-3.03-1.39-2.08 0-3.08 1.4t-1 4.04q0 2.64 1 4.03 1 1.38 3.08 1.38Zm14.54-12.9.27 1.3q.5-.5 1.05-.92.55-.42 1.17-.72.62-.3 1.32-.46.7-.17 1.54-.17 1.34 0 2.38.45 1.04.46 1.74 1.28.69.83 1.05 1.97.36 1.15.36 2.52v10.45h-3.95v-10.45q0-1.5-.69-2.33-.69-.82-2.09-.82-1.03 0-1.92.46-.9.47-1.7 1.27v11.87h-3.95v-16.42h2.41q.77 0 1.01.72Zm44.87-7.44h3.24v23.14h-3.79v-14.94q0-.9.1-1.94l-6.99 13.14q-.5.94-1.52.94h-.61q-1.03 0-1.52-.94l-7.07-13.19.08 1.04q.03.51.03.95v14.94h-3.79v-23.14h3.24q.29 0 .5.02.21.02.38.08.16.06.3.21.14.14.26.38l6.93 12.85q.27.51.51 1.06.23.54.45 1.12.23-.6.47-1.15.24-.55.51-1.06l6.83-12.82q.13-.24.27-.38.15-.15.31-.21.17-.06.38-.08.21-.02.5-.02Zm15.04 6.47q1.82 0 3.32.59 1.49.59 2.56 1.68 1.06 1.09 1.64 2.66.57 1.56.57 3.5 0 1.95-.57 3.52-.58 1.57-1.64 2.67-1.07 1.11-2.56 1.7-1.5.59-3.32.59-1.84 0-3.35-.59-1.5-.59-2.57-1.7-1.06-1.1-1.64-2.67-.59-1.57-.59-3.52 0-1.94.59-3.5.58-1.57 1.64-2.66 1.07-1.09 2.57-1.68 1.51-.59 3.35-.59Zm0 13.87q2.04 0 3.03-1.38.98-1.37.98-4.03 0-2.65-.98-4.05-.99-1.39-3.03-1.39-2.08 0-3.08 1.4t-1 4.04q0 2.64 1 4.03 1 1.38 3.08 1.38Zm21.42-2.06v-7.36q-.67-.82-1.46-1.16-.8-.33-1.71-.33-.89 0-1.61.33-.72.34-1.24 1.02-.51.68-.78 1.73-.27 1.05-.27 2.47 0 1.44.23 2.44t.66 1.63q.44.63 1.06.91.62.28 1.39.28 1.23 0 2.1-.51.86-.51 1.63-1.45Zm0-18.92h3.95v23.78h-2.41q-.79 0-1-.72l-.33-1.58q-.99 1.13-2.28 1.84-1.29.7-3 .7-1.35 0-2.47-.56t-1.92-1.62q-.81-1.07-1.25-2.64-.44-1.56-.44-3.58 0-1.82.49-3.39.5-1.57 1.43-2.72.93-1.15 2.22-1.8 1.3-.65 2.91-.65 1.38 0 2.36.43.97.43 1.74 1.17v-8.66Zm10.98 13.68h7.45q0-.76-.21-1.44-.22-.68-.65-1.2-.43-.51-1.1-.8-.66-.3-1.54-.3-1.71 0-2.7.98-.98.97-1.25 2.76Zm10.08 2.39h-10.16q.09 1.26.44 2.18.36.92.93 1.52.58.6 1.37.9.79.29 1.75.29t1.66-.22q.69-.22 1.21-.5.52-.27.92-.49.39-.23.76-.23.49 0 .73.37l1.14 1.44q-.66.77-1.47 1.29-.82.52-1.71.83-.89.31-1.81.44t-1.78.13q-1.71 0-3.18-.57-1.48-.57-2.56-1.68-1.09-1.11-1.72-2.75-.62-1.64-.62-3.8 0-1.68.54-3.16.55-1.48 1.56-2.58 1.02-1.09 2.48-1.73 1.47-.64 3.31-.64 1.55 0 2.86.49 1.31.5 2.26 1.45.94.95 1.48 2.34.53 1.38.53 3.16 0 .89-.19 1.21-.19.31-.73.31Zm3.93-16.07h3.95v23.78h-3.95v-23.78Zm30.9 4.07h-10.27v6.41h8.09v3.32h-8.09v6.54h10.27v3.44h-14.59v-23.14h14.59v3.43Zm12.22 11.07 5.62 8.64h-3.81q-.43 0-.7-.22-.26-.23-.44-.52l-3.47-5.71q-.08.27-.18.51-.11.24-.23.45l-3.08 4.75q-.17.28-.43.51-.25.23-.64.23h-3.53l5.63-8.46-5.41-7.96h3.81q.43 0 .64.12.21.12.37.4l3.44 5.47q.17-.55.49-1.07l2.77-4.32q.35-.6.91-.6h3.63l-5.39 7.78Zm11.62-2.98v7.36q.67.82 1.46 1.16.79.33 1.72.33.9 0 1.62-.33.72-.34 1.22-1.03.51-.69.78-1.73.27-1.05.27-2.48 0-1.44-.23-2.44t-.67-1.62q-.43-.62-1.04-.91-.62-.29-1.4-.29-1.24 0-2.1.52-.86.52-1.63 1.46Zm-.53-4.08.32 1.52q1.01-1.13 2.29-1.84 1.28-.7 3.01-.7 1.34 0 2.45.56t1.92 1.62q.81 1.07 1.25 2.63.44 1.56.44 3.57 0 1.84-.5 3.41-.49 1.57-1.41 2.72-.92 1.15-2.23 1.8-1.3.65-2.92.65-1.37 0-2.35-.42-.97-.43-1.74-1.18v6.72h-3.95v-21.78h2.41q.77 0 1.01.72Zm14.8-8.08h3.95v23.78h-3.95v-23.78Zm15.17 7.11q1.82 0 3.32.59 1.49.59 2.56 1.68 1.06 1.09 1.64 2.66.57 1.56.57 3.5 0 1.95-.57 3.52-.58 1.57-1.64 2.67-1.07 1.11-2.56 1.7-1.5.59-3.32.59-1.84 0-3.35-.59-1.5-.59-2.56-1.7-1.07-1.1-1.65-2.67-.59-1.57-.59-3.52 0-1.94.59-3.5.58-1.57 1.65-2.66 1.06-1.09 2.56-1.68 1.51-.59 3.35-.59Zm0 13.87q2.05 0 3.03-1.38.98-1.37.98-4.03 0-2.65-.98-4.05-.98-1.39-3.03-1.39-2.08 0-3.08 1.4t-1 4.04q0 2.64 1 4.03 1 1.38 3.08 1.38Zm14.61-12.62.24 1.85q.76-1.47 1.82-2.31 1.06-.84 2.5-.84 1.13 0 1.82.5l-.26 2.96q-.08.28-.23.4-.15.12-.41.12-.24 0-.71-.08t-.92-.08q-.65 0-1.17.2-.51.19-.92.55-.4.36-.72.87-.31.51-.58 1.17v10.11h-3.95v-16.42h2.32q.61 0 .85.22t.32.78Zm11.56 5.32h7.46q0-.76-.22-1.44-.21-.68-.64-1.2-.44-.51-1.1-.8-.66-.3-1.54-.3-1.72 0-2.7.98-.98.97-1.26 2.76Zm10.08 2.39h-10.16q.1 1.26.45 2.18.35.92.93 1.52.58.6 1.37.9.79.29 1.75.29t1.66-.22q.69-.22 1.21-.5.52-.27.91-.49.4-.23.76-.23.5 0 .74.37l1.14 1.44q-.66.77-1.48 1.29-.81.52-1.7.83-.89.31-1.81.44t-1.78.13q-1.71 0-3.19-.57-1.47-.57-2.56-1.68-1.08-1.11-1.71-2.75-.62-1.64-.62-3.8 0-1.68.54-3.16.55-1.48 1.56-2.58 1.02-1.09 2.48-1.73 1.47-.64 3.31-.64 1.55 0 2.86.49 1.31.5 2.26 1.45.94.95 1.48 2.34.53 1.38.53 3.16 0 .89-.19 1.21-.19.31-.74.31Zm7.38-7.71.24 1.85q.77-1.47 1.82-2.31 1.06-.84 2.5-.84 1.14 0 1.82.5l-.25 2.96q-.08.28-.23.4-.16.12-.41.12-.24 0-.71-.08-.48-.08-.92-.08-.66 0-1.17.2-.51.19-.92.55-.41.36-.72.87t-.59 1.17v10.11h-3.95v-16.42h2.32q.61 0 .85.22t.32.78Z"/></svg>