<svg xmlns="http://www.w3.org/2000/svg" width="600" height="400" viewBox="0 0 600 400"><rect width="100%" height="100%" fill="#DDDDDD"/><path fill="#999999" d="M134.78 187.19h3.44v20.97h-2q-.47 0-.78-.15-.31-.15-.6-.52l-10.95-13.98q.09.96.09 1.77v12.88h-3.44v-20.97h2.05q.24 0 .43.02.18.03.31.09.14.07.27.19t.29.33l10.99 14.03q-.04-.51-.07-1-.03-.49-.03-.91v-12.75Zm10.37 11.82h6.76q0-.7-.2-1.31-.19-.62-.59-1.08-.39-.47-.99-.73-.6-.27-1.4-.27-1.55 0-2.44.88-.89.89-1.14 2.51Zm9.13 2.16h-9.2q.08 1.15.4 1.98.32.83.84 1.38.53.54 1.24.81.72.27 1.59.27.87 0 1.5-.21.63-.2 1.1-.44.48-.25.83-.45.36-.21.69-.21.45 0 .67.34l1.03 1.3q-.6.7-1.34 1.17-.74.47-1.54.75-.81.29-1.64.4-.83.12-1.62.12-1.55 0-2.88-.52-1.34-.51-2.32-1.52-.99-1.01-1.55-2.49-.57-1.49-.57-3.45 0-1.52.49-2.86.5-1.34 1.42-2.34.92-.99 2.24-1.57 1.33-.58 3-.58 1.41 0 2.59.45 1.19.45 2.05 1.31.85.87 1.34 2.12.49 1.25.49 2.86 0 .82-.18 1.1-.17.28-.67.28Zm12.76-7.89h3.59v14.88h-2.19q-.71 0-.9-.65l-.25-1.19q-.91.93-2.01 1.5-1.11.57-2.6.57-1.22 0-2.15-.41-.94-.41-1.58-1.17-.63-.75-.96-1.79-.33-1.04-.33-2.28v-9.46h3.58v9.46q0 1.36.64 2.11.63.74 1.89.74.93 0 1.74-.41.81-.41 1.53-1.14v-10.76Zm10.29.9.21 1.68q.7-1.33 1.66-2.09.95-.76 2.26-.76 1.03 0 1.65.45l-.23 2.68q-.07.26-.21.37-.14.11-.37.11-.22 0-.65-.07-.42-.08-.83-.08-.59 0-1.06.18-.46.17-.83.5-.37.32-.65.79-.29.46-.53 1.06v9.16h-3.59v-14.88h2.11q.55 0 .77.2.21.19.29.7Zm15.51 10.14v-2.51q-1.55.07-2.61.27-1.06.19-1.7.5-.63.3-.91.71-.28.4-.28.88 0 .94.56 1.35.56.41 1.46.41 1.1 0 1.91-.4.8-.4 1.57-1.21Zm-7.57-7.82-.64-1.14q2.57-2.35 6.18-2.35 1.31 0 2.33.43 1.03.42 1.74 1.18.72.77 1.09 1.82.36 1.06.36 2.32v9.4h-1.62q-.51 0-.78-.15-.28-.15-.44-.62l-.32-1.07q-.56.51-1.1.89-.53.38-1.11.65-.58.26-1.24.39-.66.14-1.46.14-.94 0-1.74-.25-.8-.26-1.38-.76-.58-.51-.9-1.26-.32-.76-.32-1.76 0-.56.19-1.12t.62-1.07q.43-.51 1.11-.96.68-.45 1.67-.78.99-.33 2.31-.54 1.32-.21 3.02-.26v-.87q0-1.49-.64-2.21t-1.84-.72q-.87 0-1.44.21-.57.2-1.01.45-.43.26-.79.46-.36.2-.79.2-.38 0-.64-.19-.26-.2-.42-.46Zm14.47-9.89h3.58v21.55h-3.58v-21.55Zm29.02.58h3.43v20.97h-2q-.46 0-.77-.15-.32-.15-.61-.52l-10.94-13.98q.08.96.08 1.77v12.88h-3.43v-20.97h2.04q.25 0 .43.02.18.03.32.09.14.07.27.19t.29.33l10.99 14.03q-.05-.51-.07-1-.03-.49-.03-.91v-12.75Zm10.36 11.82h6.76q0-.7-.19-1.31-.2-.62-.59-1.08-.39-.47-.99-.73-.61-.27-1.4-.27-1.56 0-2.45.88-.89.89-1.14 2.51Zm9.14 2.16h-9.21q.09 1.15.41 1.98.32.83.84 1.38.52.54 1.24.81t1.59.27q.87 0 1.5-.21.63-.2 1.1-.44.47-.25.83-.45.35-.21.68-.21.45 0 .67.34l1.03 1.3q-.59.7-1.33 1.17-.74.47-1.55.75-.8.29-1.64.4-.83.12-1.61.12-1.55 0-2.89-.52-1.33-.51-2.32-1.52-.98-1.01-1.55-2.49-.57-1.49-.57-3.45 0-1.52.5-2.86.49-1.34 1.41-2.34.92-.99 2.25-1.57 1.33-.58 2.99-.58 1.41 0 2.6.45 1.19.45 2.04 1.31.86.87 1.34 2.12.49 1.25.49 2.86 0 .82-.17 1.1-.18.28-.67.28Zm8.48 7.22q-1.94 0-2.98-1.09-1.03-1.1-1.03-3.03v-8.3h-1.53q-.29 0-.49-.19t-.2-.57v-1.42l2.39-.39.75-4.06q.08-.29.28-.45.2-.16.52-.16h1.86v4.68h3.97v2.56h-3.97v8.06q0 .69.34 1.08.34.4.93.4.34 0 .56-.08.23-.08.39-.17.17-.09.3-.17.13-.08.26-.08.16 0 .26.08t.22.24l1.07 1.74q-.78.66-1.8.99-1.01.33-2.1.33Zm24.35-15.11h2.72l-4.72 14.88h-2.87q-.5 0-.69-.64l-2.66-8.6q-.13-.43-.24-.86-.11-.43-.18-.86-.09.43-.2.88-.11.44-.24.87l-2.71 8.57q-.18.64-.77.64h-2.75l-4.72-14.88h2.86q.39 0 .67.19.27.19.36.48l2.13 7.95q.16.65.28 1.27.13.63.21 1.25.16-.62.34-1.25l.39-1.27 2.46-7.98q.09-.29.34-.48.26-.19.62-.19h1.58q.38 0 .65.19.26.19.35.48l2.39 7.98q.19.65.36 1.28.17.63.33 1.25.18-1.23.53-2.53l2.19-7.95q.1-.29.36-.48t.63-.19Zm11.34-.23q1.65 0 3.01.54 1.35.53 2.32 1.52.96.99 1.48 2.41.52 1.42.52 3.17 0 1.77-.52 3.19t-1.48 2.42q-.97 1-2.32 1.54-1.36.54-3.01.54-1.67 0-3.03-.54-1.37-.54-2.33-1.54-.97-1-1.49-2.42-.53-1.42-.53-3.19 0-1.75.53-3.17.52-1.42 1.49-2.41.96-.99 2.33-1.52 1.36-.54 3.03-.54Zm0 12.57q1.85 0 2.74-1.24.9-1.25.9-3.66t-.9-3.67q-.89-1.26-2.74-1.26-1.89 0-2.79 1.27-.91 1.27-.91 3.66t.91 3.65q.9 1.25 2.79 1.25Zm13.23-11.44.22 1.68q.7-1.33 1.66-2.09.95-.76 2.26-.76 1.03 0 1.65.45l-.23 2.68q-.07.26-.21.37-.14.11-.37.11-.22 0-.65-.07-.42-.08-.83-.08-.6 0-1.06.18-.46.17-.83.5-.37.32-.66.79-.28.46-.52 1.06v9.16h-3.59v-14.88h2.11q.55 0 .76.2.22.19.29.7Zm7.66-7.57h3.58v12.34h.67q.36 0 .57-.09.21-.1.43-.39l3.7-4.56q.23-.31.51-.47.28-.16.73-.16h3.28l-4.62 5.53q-.5.65-1.08 1 .31.22.55.51.24.29.45.62l4.96 7.22h-3.23q-.42 0-.73-.14-.3-.14-.5-.5l-3.8-5.64q-.21-.33-.42-.43-.22-.11-.66-.11h-.81v6.82h-3.58v-21.55Zm27.01 11.12h2.92q1.07 0 1.87-.26.8-.27 1.33-.77t.79-1.22q.26-.72.26-1.6 0-.84-.26-1.53-.26-.68-.79-1.15-.52-.48-1.32-.74-.79-.25-1.88-.25h-2.92v7.52Zm-3.9-10.54h6.82q2.1 0 3.64.5 1.54.49 2.54 1.37 1 .89 1.48 2.12.49 1.23.49 2.7 0 1.52-.51 2.79t-1.52 2.18q-1.02.91-2.55 1.42-1.53.51-3.57.51h-2.92v7.38h-3.9v-20.97Zm17.43-.58h3.58v21.55h-3.58v-21.55Zm15.02 17.71v-2.51q-1.55.07-2.61.27-1.05.19-1.69.5-.64.3-.92.71-.27.4-.27.88 0 .94.56 1.35.56.41 1.45.41 1.11 0 1.91-.4.81-.4 1.57-1.21Zm-7.56-7.82-.64-1.14q2.56-2.35 6.17-2.35 1.31 0 2.34.43 1.03.42 1.74 1.18.71.77 1.08 1.82.37 1.06.37 2.32v9.4h-1.62q-.51 0-.79-.15-.27-.15-.43-.62l-.32-1.07q-.57.51-1.1.89-.54.38-1.12.65-.58.26-1.24.39-.66.14-1.46.14-.94 0-1.74-.25-.79-.26-1.37-.76-.58-.51-.9-1.26-.32-.76-.32-1.76 0-.56.19-1.12.18-.56.61-1.07t1.11-.96q.68-.45 1.68-.78.99-.33 2.31-.54 1.32-.21 3.01-.26v-.87q0-1.49-.63-2.21-.64-.72-1.84-.72-.87 0-1.45.21-.57.2-1.01.45-.43.26-.79.46-.35.2-.79.2-.37 0-.63-.19-.26-.2-.42-.46Zm25.07-3.22h2.87l-8.11 18.97q-.16.38-.41.57-.26.2-.78.2h-2.67l2.79-5.98-6.02-13.76h3.15q.42 0 .66.21.24.2.35.46l3.16 7.71q.16.4.27.79.11.39.21.79l.26-.8q.13-.4.29-.79l2.99-7.7q.12-.29.38-.48.27-.19.61-.19Zm10.09 7.08q.67 0 1.16-.18.49-.18.82-.5.32-.32.49-.77.17-.45.17-.99 0-1.1-.66-1.74-.66-.65-1.98-.65-1.32 0-1.98.65-.66.64-.66 1.74 0 .53.17.97.16.45.49.78.33.33.83.51.5.18 1.15.18Zm4.04 8.47q0-.44-.26-.71-.26-.28-.71-.43-.45-.15-1.05-.23-.6-.07-1.27-.1-.68-.04-1.4-.07-.71-.03-1.4-.12-.59.34-.96.79t-.37 1.04q0 .39.2.73.19.34.62.59.43.25 1.11.38.68.14 1.67.14 1 0 1.72-.15.73-.15 1.2-.42t.69-.64q.21-.37.21-.8Zm-.71-15.04h4.28v1.33q0 .64-.77.79l-1.33.24q.3.77.3 1.69 0 1.1-.44 1.99-.44.89-1.22 1.51-.79.63-1.85.97-1.07.34-2.3.34-.44 0-.84-.04-.41-.05-.8-.12-.7.42-.7.94 0 .45.42.66.41.21 1.09.3.68.09 1.55.11.87.02 1.79.09.91.08 1.78.26t1.55.57q.68.39 1.1 1.07.41.67.41 1.73 0 .98-.49 1.91-.48.93-1.4 1.66-.92.72-2.26 1.16-1.35.44-3.06.44-1.68 0-2.93-.32-1.24-.33-2.07-.87-.83-.55-1.23-1.26-.41-.71-.41-1.47 0-1.05.63-1.75.63-.71 1.74-1.13-.6-.3-.95-.81-.34-.51-.34-1.33 0-.34.12-.69.12-.36.36-.7.24-.35.6-.66.37-.32.86-.56-1.13-.61-1.78-1.63-.64-1.01-.64-2.37 0-1.11.44-2 .44-.89 1.23-1.52t1.87-.96q1.08-.34 2.36-.34.96 0 1.8.2.84.19 1.53.57Zm9.7.39.22 1.68q.7-1.33 1.65-2.09.96-.76 2.27-.76 1.03 0 1.65.45l-.23 2.68q-.08.26-.21.37-.14.11-.37.11-.22 0-.65-.07-.43-.08-.83-.08-.6 0-1.06.18-.46.17-.83.5-.37.32-.66.79-.28.46-.53 1.06v9.16h-3.58v-14.88h2.11q.55 0 .76.2.22.19.29.7Zm14.24-1.13q1.66 0 3.01.54 1.36.53 2.32 1.52.97.99 1.49 2.41.52 1.42.52 3.17 0 1.77-.52 3.19t-1.49 2.42q-.96 1-2.32 1.54-1.35.54-3.01.54-1.66 0-3.03-.54-1.36-.54-2.32-1.54-.97-1-1.5-2.42t-.53-3.19q0-1.75.53-3.17t1.5-2.41q.96-.99 2.32-1.52 1.37-.54 3.03-.54Zm0 12.57q1.86 0 2.75-1.24.89-1.25.89-3.66t-.89-3.67q-.89-1.26-2.75-1.26-1.88 0-2.79 1.27-.9 1.27-.9 3.66t.9 3.65q.91 1.25 2.79 1.25Zm19.32-12.34h3.58v14.88h-2.19q-.71 0-.9-.65l-.25-1.19q-.91.93-2.01 1.5-1.1.57-2.6.57-1.22 0-2.15-.41-.94-.41-1.57-1.17-.64-.75-.97-1.79-.32-1.04-.32-2.28v-9.46h3.58v9.46q0 1.36.63 2.11.63.74 1.89.74.93 0 1.74-.41.81-.41 1.54-1.14v-10.76Zm10.22.66.25 1.17q.45-.45.95-.83.5-.39 1.05-.66.56-.26 1.2-.42.64-.15 1.39-.15 1.22 0 2.16.41.95.42 1.58 1.16.63.75.95 1.79.33 1.03.33 2.28v9.47h-3.58v-9.47q0-1.36-.63-2.11-.62-.75-1.9-.75-.92 0-1.74.43-.81.42-1.53 1.14v10.76h-3.58v-14.88h2.19q.69 0 .91.66Zm22.59 9.81v-6.67q-.61-.74-1.33-1.04-.71-.31-1.54-.31-.81 0-1.47.31-.65.3-1.11.92-.47.61-.71 1.56-.25.95-.25 2.24 0 1.31.21 2.22.21.9.6 1.48.39.57.96.82.57.26 1.26.26 1.12 0 1.9-.47.78-.46 1.48-1.32Zm0-17.14h3.58v21.55h-2.19q-.71 0-.9-.65l-.3-1.44q-.9 1.03-2.07 1.67-1.16.64-2.72.64-1.21 0-2.23-.51-1.01-.51-1.75-1.47-.73-.97-1.13-2.39-.4-1.42-.4-3.25 0-1.65.45-3.07t1.29-2.46q.84-1.05 2.02-1.64 1.17-.58 2.64-.58 1.25 0 2.13.39.88.39 1.58 1.06v-7.85Z"/></svg>