<svg xmlns="http://www.w3.org/2000/svg" width="600" height="400" viewBox="0 0 600 400"><rect width="100%" height="100%" fill="#DDDDDD"/><path fill="#999999" d="M123.75 197.115q0 2.14.58 3.84.58 1.7 1.65 2.88 1.07 1.18 2.59 1.81 1.52.63 3.43.63 1.91 0 3.43-.63 1.52-.63 2.58-1.81 1.06-1.18 1.64-2.88.57-1.7.57-3.84 0-2.15-.57-3.85-.58-1.7-1.64-2.89-1.06-1.18-2.58-1.81-1.52-.63-3.43-.63-1.91 0-3.43.63-1.52.63-2.59 1.81-1.07 1.19-1.65 2.89-.58 1.7-.58 3.85Zm16.17 10.9 6.6 7.2h-3.99q-.87 0-1.56-.23-.69-.23-1.27-.86l-3.81-4.22q-.92.26-1.88.38-.97.13-2.01.13-2.95 0-5.38-1-2.43-1-4.17-2.78-1.74-1.78-2.69-4.22-.96-2.44-.96-5.3 0-2.87.96-5.31.95-2.43 2.69-4.22 1.74-1.78 4.17-2.78 2.43-1 5.38-1 1.98 0 3.72.46 1.75.46 3.21 1.3 1.46.84 2.62 2.03 1.16 1.2 1.97 2.68.81 1.47 1.23 3.2.42 1.73.42 3.64 0 1.74-.36 3.33-.36 1.6-1.03 2.98-.68 1.39-1.65 2.55-.97 1.16-2.21 2.04Zm8.66-6.91v-3.71h9.32v3.71h-9.32Zm19.11 5.02h10.41v4h-15.25v-26.03h4.84v22.03Zm16.67-7.36h8.39q0-.86-.24-1.63-.25-.76-.73-1.34-.49-.57-1.24-.91-.74-.33-1.73-.33-1.93 0-3.04 1.1-1.1 1.1-1.41 3.11Zm11.34 2.68h-11.43q.11 1.43.5 2.46.4 1.04 1.05 1.71.65.68 1.54 1.01.89.33 1.97.33t1.86-.25q.78-.25 1.37-.56.58-.3 1.03-.56.44-.25.85-.25.56 0 .83.42l1.28 1.62q-.74.86-1.66 1.44-.92.59-1.92.94-1 .35-2.03.5-1.04.14-2.01.14-1.92 0-3.58-.64-1.66-.64-2.88-1.89t-1.93-3.1q-.7-1.84-.7-4.27 0-1.89.61-3.56.62-1.66 1.76-2.89 1.14-1.24 2.79-1.96 1.65-.72 3.72-.72 1.74 0 3.22.56 1.47.56 2.54 1.63 1.06 1.07 1.66 2.63.6 1.56.6 3.55 0 1.01-.21 1.36-.22.35-.83.35Zm14.13 3.91v-3.11q-1.93.09-3.24.33-1.31.24-2.11.62-.79.38-1.13.88-.34.51-.34 1.1 0 1.17.69 1.67.69.51 1.81.51 1.37 0 2.37-.5 1-.49 1.95-1.5Zm-9.4-9.7-.79-1.42q3.19-2.92 7.67-2.92 1.62 0 2.9.53 1.28.53 2.16 1.48.88.94 1.34 2.26.46 1.31.46 2.88v11.66h-2.02q-.63 0-.97-.19-.34-.19-.54-.76l-.4-1.34q-.7.63-1.36 1.11-.67.48-1.39.8-.72.33-1.54.5-.82.17-1.81.17-1.17 0-2.16-.32-.99-.31-1.71-.94-.72-.63-1.11-1.57-.4-.93-.4-2.18 0-.7.23-1.39.24-.69.77-1.32.53-.63 1.38-1.19.84-.56 2.08-.97 1.23-.42 2.87-.68 1.63-.26 3.74-.31v-1.08q0-1.86-.79-2.75-.79-.89-2.29-.89-1.08 0-1.79.25t-1.25.57q-.54.31-.98.57-.44.25-.98.25-.47 0-.79-.25-.33-.24-.53-.56Zm21.84-2.88.27 2.09q.86-1.66 2.05-2.61 1.19-.94 2.81-.94 1.28 0 2.05.56l-.29 3.33q-.09.32-.26.46-.17.13-.46.13-.27 0-.8-.09t-1.03-.09q-.74 0-1.32.22-.57.21-1.03.62-.46.4-.81.98-.35.58-.66 1.31v11.38h-4.45v-18.47h2.61q.69 0 .96.24.27.25.36.88Zm13.35-.31.31 1.46q.56-.56 1.18-1.04.62-.47 1.31-.81.7-.33 1.49-.52t1.73-.19q1.51 0 2.68.52 1.17.51 1.95 1.44.78.92 1.19 2.21.4 1.29.4 2.84v11.75h-4.44v-11.75q0-1.7-.78-2.62-.77-.93-2.35-.93-1.16 0-2.16.52-1.01.52-1.91 1.42v13.36h-4.45v-18.47h2.72q.86 0 1.13.81Zm16.6-.81h4.46v18.47h-4.46v-18.47Zm5.08-5.38q0 .58-.24 1.08-.23.5-.62.88t-.91.6q-.52.23-1.11.23-.58 0-1.09-.23-.52-.22-.89-.6-.38-.38-.61-.88-.22-.5-.22-1.08 0-.59.22-1.12.23-.52.61-.9.37-.37.89-.6.51-.22 1.09-.22.59 0 1.11.22.52.23.91.6.39.38.62.9.24.53.24 1.12Zm7.77 6.19.31 1.46q.56-.56 1.18-1.04.62-.47 1.31-.81.69-.33 1.49-.52.79-.19 1.72-.19 1.52 0 2.69.52 1.17.51 1.95 1.44.78.92 1.19 2.21.4 1.29.4 2.84v11.75h-4.44v-11.75q0-1.7-.78-2.62-.77-.93-2.36-.93-1.15 0-2.16.52-1 .52-1.9 1.42v13.36h-4.45v-18.47h2.72q.86 0 1.13.81Zm23.2 7.98q.83 0 1.44-.23.62-.22 1.02-.62.41-.4.61-.95.21-.56.21-1.23 0-1.37-.82-2.17-.82-.8-2.46-.8-1.63 0-2.45.8-.82.8-.82 2.17 0 .65.21 1.21.2.56.61.96.4.41 1.02.63.62.23 1.43.23Zm5.03 10.51q0-.54-.33-.88-.32-.35-.88-.54-.56-.18-1.3-.27-.75-.09-1.59-.14-.84-.04-1.73-.08t-1.73-.14q-.74.41-1.2.97-.46.56-.46 1.29 0 .49.24.91.25.43.78.73.53.31 1.37.48.85.17 2.07.17 1.25 0 2.15-.19.9-.19 1.48-.52.59-.33.86-.79t.27-1Zm-.89-18.67h5.31v1.66q0 .79-.95.97l-1.66.31q.38.95.38 2.08 0 1.37-.55 2.48-.55 1.11-1.52 1.88-.97.77-2.29 1.2-1.33.42-2.86.42-.54 0-1.04-.05-.5-.06-.99-.15-.86.52-.86 1.17 0 .56.51.82.51.26 1.36.37.84.11 1.92.13 1.08.03 2.22.12 1.13.09 2.21.32 1.08.22 1.93.71.84.48 1.36 1.32.51.84.51 2.15 0 1.23-.6 2.38-.61 1.15-1.75 2.05-1.14.9-2.81 1.45-1.66.55-3.79.55-2.08 0-3.63-.41-1.55-.4-2.58-1.08-1.02-.67-1.53-1.55-.5-.89-.5-1.84 0-1.3.78-2.17.79-.87 2.15-1.39-.73-.38-1.17-1.01-.43-.63-.43-1.66 0-.41.16-.85.15-.44.45-.88.29-.43.74-.82.45-.38 1.06-.69-1.4-.75-2.2-2.01-.8-1.26-.8-2.96 0-1.36.55-2.47t1.53-1.89q.98-.78 2.32-1.2 1.34-.41 2.92-.41 1.19 0 2.24.24 1.04.24 1.9.71Zm30.39 4.79h8.64v10.53q-1.98 1.46-4.22 2.13-2.24.68-4.8.68-3.19 0-5.77-.99-2.58-.99-4.41-2.76-1.83-1.76-2.82-4.21-.99-2.45-.99-5.34 0-2.94.96-5.39.95-2.44 2.71-4.21 1.75-1.76 4.25-2.73 2.51-.98 5.62-.98 1.58 0 2.96.26 1.38.25 2.56.69 1.18.44 2.15 1.07.97.63 1.78 1.39l-1.39 2.19q-.32.52-.84.64t-1.14-.26l-1.18-.68q-.6-.35-1.33-.6-.73-.25-1.63-.41-.91-.16-2.1-.16-1.93 0-3.48.64-1.56.65-2.66 1.86-1.1 1.2-1.69 2.9-.6 1.69-.6 3.78 0 2.23.64 3.98.64 1.76 1.8 2.97 1.16 1.22 2.8 1.86 1.64.64 3.66.64 1.44 0 2.57-.31t2.21-.83v-4.71h-3.27q-.47 0-.73-.27-.26-.26-.26-.63v-2.74Zm16.54-4.3.27 2.09q.86-1.66 2.05-2.61 1.19-.94 2.81-.94 1.28 0 2.05.56l-.29 3.33q-.09.32-.26.46-.17.13-.46.13-.27 0-.8-.09t-1.03-.09q-.74 0-1.32.22-.57.21-1.03.62-.46.4-.81.98-.35.58-.66 1.31v11.38h-4.44v-18.47h2.61q.68 0 .95.24.27.25.36.88Zm9.65-1.12h4.46v18.47h-4.46v-18.47Zm5.07-5.38q0 .58-.23 1.08-.23.5-.62.88t-.91.6q-.52.23-1.12.23-.57 0-1.08-.23-.52-.22-.9-.6-.37-.38-.6-.88-.22-.5-.22-1.08 0-.59.22-1.12.23-.52.6-.9.38-.37.9-.6.51-.22 1.08-.22.6 0 1.12.22.52.23.91.6.39.38.62.9.23.53.23 1.12Zm15.52 18.38v-8.28q-.76-.92-1.65-1.3-.89-.38-1.91-.38-1.01 0-1.82.38t-1.39 1.14q-.57.77-.88 1.95-.31 1.18-.31 2.78 0 1.62.27 2.74.26 1.13.74 1.84.49.71 1.19 1.03.7.31 1.57.31 1.38 0 2.35-.57.98-.58 1.84-1.64Zm0-21.28h4.45v26.75h-2.72q-.88 0-1.12-.81l-.38-1.78q-1.11 1.28-2.56 2.07-1.45.79-3.38.79-1.51 0-2.77-.63t-2.17-1.83q-.91-1.19-1.4-2.96-.5-1.76-.5-4.03 0-2.05.56-3.82.56-1.76 1.6-3.06 1.05-1.29 2.51-2.02 1.45-.73 3.27-.73 1.55 0 2.65.49 1.1.48 1.96 1.31v-9.74Zm41.4 13.74q0 2.86-.95 5.25-.96 2.4-2.69 4.12-1.72 1.73-4.15 2.69-2.43.95-5.4.95h-9.92v-26.03h9.92q2.97 0 5.4.96 2.43.97 4.15 2.69 1.73 1.72 2.69 4.11.95 2.39.95 5.26Zm-4.97 0q0-2.15-.56-3.85-.57-1.7-1.64-2.88-1.07-1.18-2.59-1.81-1.53-.63-3.43-.63h-5.06v18.33h5.06q1.9 0 3.43-.63 1.52-.63 2.59-1.81 1.07-1.18 1.64-2.88.56-1.7.56-3.84Zm12.04 1.65h8.39q0-.86-.24-1.63-.24-.76-.73-1.34-.49-.57-1.23-.91-.75-.33-1.74-.33-1.93 0-3.03 1.1-1.11 1.1-1.42 3.11Zm11.34 2.68h-11.43q.11 1.43.51 2.46.39 1.04 1.04 1.71.65.68 1.54 1.01.89.33 1.97.33t1.87-.25q.78-.25 1.36-.56.59-.3 1.03-.56.44-.25.85-.25.56 0 .83.42l1.28 1.62q-.74.86-1.66 1.44-.91.59-1.91.94-1 .35-2.04.5-1.03.14-2 .14-1.93 0-3.59-.64-1.65-.64-2.88-1.89-1.22-1.25-1.92-3.1-.7-1.84-.7-4.27 0-1.89.61-3.56.61-1.66 1.75-2.89 1.15-1.24 2.79-1.96 1.65-.72 3.72-.72 1.75 0 3.22.56 1.48.56 2.54 1.63 1.06 1.07 1.67 2.63.6 1.56.6 3.55 0 1.01-.22 1.36-.21.35-.83.35Zm8.82 8.68h-4.44v-18.47h2.72q.86 0 1.13.81l.29 1.37q.48-.54 1.02-.99.53-.45 1.13-.77.6-.33 1.3-.52.69-.19 1.52-.19 1.74 0 2.87.95 1.12.94 1.68 2.51.43-.92 1.08-1.58.65-.65 1.42-1.07.78-.41 1.65-.61.87-.2 1.75-.2 1.53 0 2.72.47 1.19.47 2 1.37.81.9 1.23 2.2.43 1.29.43 2.97v11.75h-4.45v-11.75q0-1.77-.77-2.66-.78-.89-2.27-.89-.69 0-1.27.23-.59.24-1.03.68-.44.44-.69 1.11-.25.66-.25 1.53v11.75h-4.47v-11.75q0-1.86-.74-2.7-.75-.85-2.19-.85-.97 0-1.81.48-.84.47-1.56 1.3v13.52Zm33.88-18.76q2.05 0 3.74.67 1.68.67 2.88 1.89 1.19 1.22 1.84 2.99.65 1.76.65 3.94 0 2.2-.65 3.96-.65 1.76-1.84 3.01-1.2 1.24-2.88 1.9-1.69.67-3.74.67-2.07 0-3.76-.67-1.69-.66-2.89-1.9-1.2-1.25-1.85-3.01-.66-1.76-.66-3.96 0-2.18.66-3.94.65-1.77 1.85-2.99 1.2-1.22 2.89-1.89 1.69-.67 3.76-.67Zm0 15.61q2.3 0 3.41-1.55 1.11-1.55 1.11-4.53 0-2.99-1.11-4.56-1.11-1.56-3.41-1.56-2.34 0-3.46 1.57-1.13 1.58-1.13 4.55 0 2.97 1.13 4.52 1.12 1.56 3.46 1.56Z"/></svg>