<svg xmlns="http://www.w3.org/2000/svg" width="600" height="400" viewBox="0 0 600 400"><rect width="100%" height="100%" fill="#DDDDDD"/><path fill="#999999" d="M129.25 192.175v2.44h-4.8v13.47h-2.96v-13.47h-4.79v-2.44h12.55Zm4.05 5.31.17 1.27q.53-1.01 1.25-1.59.73-.57 1.72-.57.78 0 1.25.34l-.17 2.03q-.06.2-.16.28-.11.08-.28.08-.17 0-.49-.05-.33-.06-.63-.06-.46 0-.81.14-.35.13-.63.38-.28.24-.49.6-.22.35-.41.8v6.95h-2.71v-11.29h1.59q.42 0 .58.15.17.15.22.54Zm11.77 7.68v-1.9q-1.17.06-1.98.21-.8.14-1.28.38-.49.23-.7.53-.2.31-.2.68 0 .71.42 1.02.42.31 1.1.31.84 0 1.45-.31.61-.3 1.19-.92Zm-5.74-5.92-.48-.87q1.95-1.78 4.68-1.78.99 0 1.78.32.78.32 1.32.9.53.58.82 1.38.28.81.28 1.76v7.13h-1.24q-.38 0-.59-.12-.21-.11-.33-.46l-.24-.82q-.43.39-.84.68-.41.29-.85.49t-.94.3q-.5.11-1.1.11-.72 0-1.32-.2-.61-.19-1.05-.57-.44-.39-.68-.96-.24-.57-.24-1.33 0-.43.14-.85.15-.43.47-.81.32-.39.84-.73.52-.34 1.27-.59.76-.26 1.76-.42 1-.15 2.28-.19v-.66q0-1.13-.48-1.68-.48-.54-1.4-.54-.66 0-1.09.15-.44.16-.77.35-.33.19-.59.35-.27.15-.6.15-.29 0-.49-.15t-.32-.34Zm13.3-1.95.19.89q.34-.34.72-.63.38-.29.8-.5.43-.2.91-.32.48-.11 1.06-.11.92 0 1.63.31.72.32 1.2.88.48.57.72 1.35.25.79.25 1.74v7.18h-2.72v-7.18q0-1.04-.47-1.6-.47-.57-1.44-.57-.7 0-1.32.32-.62.32-1.17.87v8.16h-2.71v-11.29h1.66q.53 0 .69.5Zm17.56.73-.62.97q-.11.18-.23.25-.12.07-.31.07-.2 0-.42-.11-.23-.11-.52-.24-.3-.14-.68-.25-.38-.11-.9-.11-.8 0-1.26.34-.45.34-.45.89 0 .36.23.61.24.25.63.44.39.18.89.33.49.15 1 .33.51.17 1.01.4.49.22.89.57.39.35.62.83.24.48.24 1.17 0 .81-.29 1.5-.29.68-.87 1.18-.57.51-1.41.79t-1.94.28q-.58 0-1.14-.11-.56-.1-1.07-.29-.51-.19-.94-.44-.44-.25-.77-.55l.63-1.03q.12-.19.29-.29.16-.1.41-.1.26 0 .48.14.23.15.52.31.3.17.7.31.4.14 1.02.14.48 0 .83-.11.35-.12.57-.31.23-.18.33-.43.11-.25.11-.51 0-.4-.24-.65t-.63-.44q-.39-.19-.89-.34-.5-.14-1.02-.32t-1.02-.41q-.5-.24-.89-.6t-.63-.89q-.24-.53-.24-1.28 0-.69.28-1.32.27-.63.81-1.09.53-.47 1.33-.75.79-.28 1.84-.28 1.17 0 2.12.38.96.39 1.6 1.02Zm5.67 10.06h-2.71v-9.24l-.98-.15q-.32-.07-.51-.23-.2-.16-.2-.46v-1.11h1.69v-.83q0-.97.29-1.74t.83-1.31q.55-.54 1.33-.82.78-.29 1.76-.29.78 0 1.45.21l-.05 1.36q-.01.16-.09.25t-.2.14q-.13.05-.3.07-.16.02-.35.02-.48 0-.86.1t-.65.36q-.26.26-.4.68-.13.43-.13 1.06v.74h2.93v1.94h-2.85v9.25Zm9.38-11.46q1.25 0 2.28.41 1.03.4 1.76 1.15.73.75 1.13 1.83.39 1.07.39 2.4 0 1.35-.39 2.43-.4 1.07-1.13 1.83-.73.76-1.76 1.17-1.03.4-2.28.4-1.27 0-2.3-.4-1.04-.41-1.77-1.17t-1.13-1.83q-.4-1.08-.4-2.43 0-1.33.4-2.4.4-1.08 1.13-1.83.73-.75 1.77-1.15 1.03-.41 2.3-.41Zm0 9.54q1.4 0 2.08-.95.68-.95.68-2.77 0-1.83-.68-2.79-.68-.95-2.08-.95-1.43 0-2.12.96-.69.96-.69 2.78 0 1.81.69 2.76.69.96 2.12.96Zm10.04-8.68.16 1.27q.53-1.01 1.26-1.59.72-.57 1.71-.57.78 0 1.26.34l-.18 2.03q-.05.2-.16.28-.1.08-.28.08-.16 0-.49-.05-.32-.06-.63-.06-.45 0-.8.14-.36.13-.64.38-.28.24-.49.6-.22.35-.4.8v6.95h-2.72v-11.29h1.6q.41 0 .58.15.16.15.22.54Zm8.52 10.6h-2.71v-11.29h1.66q.53 0 .69.5l.18.83q.29-.33.62-.6.32-.27.69-.47.37-.2.79-.32.43-.11.93-.11 1.07 0 1.76.58.68.57 1.03 1.53.26-.56.66-.96.39-.4.86-.66.48-.25 1.01-.37t1.07-.12q.94 0 1.66.28.73.29 1.23.84.49.55.75 1.34t.26 1.82v7.18h-2.72v-7.18q0-1.08-.47-1.63-.48-.54-1.39-.54-.42 0-.77.14-.36.15-.63.42-.27.26-.42.67-.16.41-.16.94v7.18h-2.73v-7.18q0-1.14-.45-1.65-.46-.52-1.34-.52-.59 0-1.1.29-.52.29-.96.8v8.26Zm17.86-6.94h5.12q0-.53-.15-1-.14-.46-.44-.82-.3-.35-.75-.55-.46-.2-1.07-.2-1.17 0-1.85.67-.68.67-.86 1.9Zm6.93 1.64h-6.99q.07.87.31 1.5t.64 1.04q.39.42.94.62.54.2 1.2.2.66 0 1.14-.15.48-.15.84-.34.35-.19.62-.34.27-.16.53-.16.34 0 .5.26l.78.99q-.45.52-1.01.88t-1.17.57q-.61.22-1.24.31-.64.08-1.23.08-1.18 0-2.19-.39t-1.76-1.15q-.75-.77-1.18-1.89-.42-1.13-.42-2.61 0-1.16.37-2.18.37-1.01 1.07-1.77.7-.75 1.71-1.19 1-.44 2.27-.44 1.07 0 1.97.34.9.34 1.55.99.65.66 1.02 1.61.36.95.36 2.17 0 .62-.13.83-.13.22-.5.22Zm5.07-5.3.16 1.27q.53-1.01 1.26-1.59.72-.57 1.71-.57.78 0 1.26.34l-.18 2.03q-.05.2-.16.28-.1.08-.28.08-.16 0-.49-.05-.32-.06-.63-.06-.45 0-.8.14-.36.13-.64.38-.28.24-.49.6-.22.35-.4.8v6.95h-2.72v-11.29h1.59q.42 0 .59.15.16.15.22.54Zm14.92 4.59h5.06l-1.93-5.29q-.14-.35-.3-.83-.15-.49-.31-1.05-.14.56-.29 1.05-.16.49-.3.86l-1.93 5.26Zm4.04-9.9 6.25 15.91h-2.29q-.38 0-.63-.19-.24-.19-.36-.48l-1.19-3.25h-6.59l-1.18 3.25q-.09.25-.34.46-.26.21-.63.21h-2.31l6.26-15.91h3.01Zm9.87 5.31.16 1.27q.53-1.01 1.26-1.59.72-.57 1.71-.57.78 0 1.26.34l-.18 2.03q-.05.2-.16.28-.1.08-.28.08-.16 0-.49-.05-.32-.06-.63-.06-.45 0-.8.14-.36.13-.64.38-.28.24-.49.6-.22.35-.4.8v6.95h-2.72v-11.29h1.6q.41 0 .58.15.16.15.22.54Zm14.61.71-.72.99q-.12.16-.23.24-.12.09-.34.09-.21 0-.41-.13l-.47-.28q-.28-.16-.65-.29-.38-.12-.95-.12-.71 0-1.25.25-.54.26-.9.75-.35.48-.53 1.17-.18.69-.18 1.55 0 .91.2 1.61.19.71.55 1.18.37.48.88.73.52.25 1.17.25.65 0 1.05-.16t.68-.35q.27-.2.47-.36.21-.16.46-.16.33 0 .5.26l.78.99q-.45.52-.98.88t-1.1.57q-.56.22-1.16.31-.6.08-1.2.08-1.04 0-1.97-.39-.92-.39-1.61-1.13-.7-.75-1.1-1.84-.4-1.08-.4-2.47 0-1.24.36-2.3.36-1.06 1.05-1.84.69-.77 1.72-1.21 1.02-.44 2.35-.44 1.26 0 2.22.41.95.4 1.71 1.16Zm4.52-6.46v6.27q.66-.61 1.45-1 .79-.38 1.86-.38.92 0 1.64.31.71.32 1.19.88.48.57.73 1.35.24.79.24 1.74v7.18h-2.71v-7.18q0-1.04-.48-1.6-.47-.57-1.44-.57-.7 0-1.32.32-.61.32-1.16.87v8.16h-2.72v-16.35h2.72Zm9.78 5.06h2.72v11.29h-2.72v-11.29Zm3.1-3.28q0 .35-.14.66-.15.3-.38.53-.24.24-.56.37-.32.14-.68.14-.35 0-.67-.14-.31-.13-.54-.37-.23-.23-.37-.53-.14-.31-.14-.66 0-.37.14-.69.14-.32.37-.55.23-.23.54-.37.32-.13.67-.13.36 0 .68.13.32.14.56.37.23.23.38.55.14.32.14.69Zm6.16 14.75q-1.48 0-2.26-.83-.79-.83-.79-2.3v-6.3h-1.15q-.22 0-.38-.14-.15-.15-.15-.43v-1.08l1.81-.3.58-3.08q.05-.22.2-.34.16-.12.4-.12h1.41v3.55h3.01v1.94h-3.01v6.12q0 .52.26.82.26.3.71.3.25 0 .42-.06.17-.06.3-.13l.22-.13q.1-.06.2-.06.12 0 .2.06.08.06.16.18l.82 1.33q-.6.49-1.37.74-.77.26-1.59.26Zm6.57-7.12h5.12q0-.53-.15-1-.15-.46-.44-.82-.3-.35-.76-.55-.45-.2-1.06-.2-1.17 0-1.85.67-.68.67-.86 1.9Zm6.93 1.64h-6.99q.07.87.31 1.5t.64 1.04q.39.42.94.62.54.2 1.2.2.66 0 1.14-.15.48-.15.84-.34.35-.19.62-.34.27-.16.53-.16.34 0 .5.26l.78.99q-.45.52-1.01.88t-1.17.57q-.61.22-1.24.31-.64.08-1.23.08-1.18 0-2.19-.39t-1.76-1.15q-.75-.77-1.18-1.89-.43-1.13-.43-2.61 0-1.16.38-2.18.37-1.01 1.07-1.77.7-.75 1.71-1.19 1-.44 2.27-.44 1.06 0 1.97.34.9.34 1.55.99.65.66 1.02 1.61.36.95.36 2.17 0 .62-.13.83-.13.22-.5.22Zm11.47-4.59-.72.99q-.12.16-.23.24-.12.09-.34.09-.21 0-.41-.13-.19-.12-.47-.28-.27-.16-.65-.29-.38-.12-.94-.12-.72 0-1.26.25-.54.26-.89.75-.36.48-.54 1.17-.17.69-.17 1.55 0 .91.19 1.61.19.71.55 1.18.37.48.88.73.52.25 1.17.25.65 0 1.05-.16t.68-.35q.27-.2.48-.36.2-.16.45-.16.33 0 .5.26l.78.99q-.45.52-.98.88t-1.09.57q-.57.22-1.17.31-.6.08-1.19.08-1.05 0-1.97-.39-.93-.39-1.62-1.13-.69-.75-1.09-1.84-.41-1.08-.41-2.47 0-1.24.36-2.3.36-1.06 1.05-1.84.69-.77 1.72-1.21 1.02-.44 2.35-.44 1.27 0 2.22.41.95.4 1.71 1.16Zm5.56 10.07q-1.47 0-2.26-.83-.78-.83-.78-2.3v-6.3h-1.16q-.22 0-.37-.14-.16-.15-.16-.43v-1.08l1.82-.3.57-3.08q.06-.22.21-.34.15-.12.4-.12h1.4v3.55h3.02v1.94h-3.02v6.12q0 .52.26.82.26.3.71.3.26 0 .43-.06.17-.06.29-.13.13-.07.23-.13t.2-.06q.12 0 .19.06.08.06.17.18l.81 1.33q-.59.49-1.36.74-.77.26-1.6.26Zm11.43-11.47h2.72v11.29h-1.66q-.54 0-.68-.49l-.19-.91q-.69.71-1.53 1.14-.83.44-1.97.44-.92 0-1.63-.32-.71-.31-1.19-.88-.49-.57-.74-1.36-.24-.79-.24-1.73v-7.18h2.71v7.18q0 1.03.48 1.6.48.56 1.44.56.7 0 1.32-.31.61-.31 1.16-.86v-8.17Zm7.8.69.17 1.27q.53-1.01 1.25-1.59.73-.57 1.72-.57.78 0 1.25.34l-.17 2.03q-.06.2-.16.28-.11.08-.28.08-.17 0-.49-.05-.33-.06-.64-.06-.45 0-.8.14-.35.13-.63.38-.28.24-.5.6-.21.35-.4.8v6.95h-2.72v-11.29h1.6q.42 0 .58.15.17.15.22.54Zm7.96 3.66h5.12q0-.53-.15-1-.15-.46-.44-.82-.3-.35-.76-.55-.45-.2-1.06-.2-1.17 0-1.85.67-.68.67-.86 1.9Zm6.93 1.64h-6.99q.07.87.31 1.5t.64 1.04q.39.42.94.62.54.2 1.2.2.66 0 1.14-.15.48-.15.84-.34.35-.19.62-.34.27-.16.53-.16.34 0 .5.26l.78.99q-.45.52-1.01.88t-1.17.57q-.61.22-1.24.31-.64.08-1.23.08-1.18 0-2.19-.39t-1.76-1.15q-.75-.77-1.18-1.89-.43-1.13-.43-2.61 0-1.16.38-2.18.37-1.01 1.07-1.77.7-.75 1.71-1.19 1-.44 2.27-.44 1.06 0 1.97.34.9.34 1.55.99.65.66 1.02 1.61.36.95.36 2.17 0 .62-.13.83-.13.22-.5.22Zm11.4 2.99h2.99q.83 0 1.39-.2.56-.2.9-.53.33-.33.48-.77.15-.44.15-.93 0-.52-.17-.93-.16-.41-.51-.7-.35-.3-.91-.45-.56-.15-1.34-.15h-2.98v4.66Zm2.52-11.31h-2.52v4.6h2.36q1.51 0 2.29-.55t.78-1.75q0-1.24-.71-1.77-.7-.53-2.2-.53Zm-5.48-2.29h5.48q1.56 0 2.67.3 1.12.3 1.83.85.7.55 1.03 1.33.33.78.33 1.76 0 .56-.16 1.07-.17.51-.51.96-.35.44-.88.81-.54.36-1.27.61 3.28.74 3.28 3.55 0 1.01-.39 1.87-.38.85-1.12 1.47-.74.63-1.82.98-1.07.35-2.46.35h-6.01v-15.91Zm16.46 5.31.16 1.27q.53-1.01 1.26-1.59.72-.57 1.71-.57.79 0 1.26.34l-.18 2.03q-.05.2-.16.28-.1.08-.28.08-.16 0-.49-.05-.32-.06-.63-.06-.45 0-.8.14-.35.13-.63.38-.29.24-.5.6-.21.35-.4.8v6.95h-2.72v-11.29h1.6q.41 0 .58.15.16.15.22.54Zm7.95 3.66h5.13q0-.53-.15-1-.15-.46-.45-.82-.29-.35-.75-.55-.46-.2-1.06-.2-1.18 0-1.85.67-.68.67-.87 1.9Zm6.93 1.64h-6.98q.06.87.31 1.5.24.63.63 1.04.4.42.94.62.55.2 1.21.2.66 0 1.14-.15.48-.15.83-.34.36-.19.63-.34.27-.16.52-.16.34 0 .51.26l.78.99q-.45.52-1.01.88t-1.17.57q-.61.22-1.25.31-.63.08-1.22.08-1.18 0-2.19-.39t-1.76-1.15q-.75-.77-1.18-1.89-.43-1.13-.43-2.61 0-1.16.38-2.18.37-1.01 1.07-1.77.7-.75 1.7-1.19 1.01-.44 2.27-.44 1.07 0 1.97.34.91.34 1.55.99.65.66 1.02 1.61.37.95.37 2.17 0 .62-.13.83-.13.22-.51.22Zm8.64 2.38v-1.9q-1.18.06-1.98.21-.81.14-1.29.38-.48.23-.69.53-.21.31-.21.68 0 .71.42 1.02.43.31 1.11.31.83 0 1.44-.31.61-.3 1.2-.92Zm-5.74-5.92-.49-.87q1.95-1.78 4.69-1.78.99 0 1.77.32t1.32.9q.54.58.82 1.38.28.81.28 1.76v7.13h-1.23q-.39 0-.6-.12-.21-.11-.33-.46l-.24-.82q-.43.39-.84.68-.4.29-.84.49-.44.2-.94.3-.5.11-1.11.11-.71 0-1.32-.2-.6-.19-1.04-.57-.44-.39-.69-.96-.24-.57-.24-1.33 0-.43.15-.85.14-.43.46-.81.33-.39.84-.73.52-.34 1.28-.59.75-.26 1.75-.42 1-.15 2.29-.19v-.66q0-1.13-.49-1.68-.48-.54-1.39-.54-.66 0-1.1.15-.43.16-.76.35-.33.19-.6.35-.27.15-.6.15-.29 0-.49-.15-.19-.15-.31-.34Zm10.94-7.51h2.72v9.37h.5q.28 0 .44-.08.16-.07.32-.29l2.81-3.46q.17-.23.39-.35.21-.13.55-.13h2.49l-3.51 4.2q-.37.49-.81.75.23.17.41.39.18.22.35.47l3.76 5.48h-2.46q-.31 0-.55-.1-.23-.11-.38-.38l-2.88-4.28q-.16-.26-.32-.33-.17-.08-.5-.08h-.61v5.17h-2.72v-16.35Zm18.84 13.01v-5.06q-.46-.56-1-.8-.55-.23-1.17-.23-.62 0-1.12.23-.49.24-.84.7-.35.47-.54 1.19-.19.72-.19 1.7 0 .99.16 1.68t.46 1.12q.29.43.72.63.43.19.96.19.85 0 1.44-.35.6-.35 1.12-1Zm0-13.01h2.72v16.35h-1.66q-.54 0-.68-.49l-.23-1.09q-.69.78-1.57 1.26-.89.48-2.06.48-.93 0-1.7-.38-.77-.38-1.32-1.12-.56-.73-.86-1.81-.3-1.07-.3-2.46 0-1.25.34-2.33t.98-1.87q.63-.79 1.53-1.24.89-.44 2-.44.94 0 1.61.29.68.3 1.2.81v-5.96Zm10.4 4.89q1.25 0 2.28.41 1.03.4 1.76 1.15.73.75 1.13 1.83.39 1.07.39 2.4 0 1.35-.39 2.43-.4 1.07-1.13 1.83-.73.76-1.76 1.17-1.03.4-2.28.4-1.27 0-2.3-.4-1.03-.41-1.77-1.17-.73-.76-1.13-1.83-.4-1.08-.4-2.43 0-1.33.4-2.4.4-1.08 1.13-1.83.74-.75 1.77-1.15 1.03-.41 2.3-.41Zm0 9.54q1.41 0 2.08-.95.68-.95.68-2.77 0-1.83-.68-2.79-.67-.95-2.08-.95-1.43 0-2.12.96-.69.96-.69 2.78 0 1.81.69 2.76.69.96 2.12.96Zm21.69-9.37h2.07l-3.59 11.29h-2.17q-.38 0-.52-.48l-2.03-6.53q-.1-.33-.18-.65-.08-.33-.14-.66-.06.33-.14.67-.09.34-.19.67l-2.05 6.5q-.13.48-.59.48h-2.09l-3.57-11.29h2.17q.29 0 .5.15.21.14.28.36l1.61 6.03q.13.49.22.97.09.47.16.94.12-.47.26-.94.13-.48.29-.97l1.87-6.05q.06-.22.26-.36.19-.15.46-.15h1.2q.29 0 .49.15.21.14.27.36l1.82 6.05q.14.49.27.97.12.48.24.95.15-.93.41-1.92l1.66-6.03q.08-.22.28-.36.2-.15.47-.15Zm5.96.5.19.89q.34-.34.72-.63.38-.29.8-.5.43-.2.91-.32.48-.11 1.06-.11.92 0 1.64.31.71.32 1.19.88.48.57.73 1.35.24.79.24 1.74v7.18h-2.71v-7.18q0-1.04-.48-1.6-.47-.57-1.44-.57-.7 0-1.32.32-.61.32-1.16.87v8.16h-2.72v-11.29h1.66q.53 0 .69.5Z"/></svg>